<mxfile host="app.diagrams.net" modified="2023-06-12T21:12:33.037Z" agent="Mozilla/5.0 (X11; Ubuntu; Linux x86_64; rv:109.0) Gecko/20100101 Firefox/114.0" etag="nt7tHsdVq4dDjdYK8DOb" version="21.3.2" type="device">
  <diagram name="Page-1" id="R769uyWMGICY1iDBy0LQ">
    <mxGraphModel dx="1432" dy="771" grid="0" gridSize="10" guides="1" tooltips="1" connect="1" arrows="1" fold="1" page="1" pageScale="1" pageWidth="1600" pageHeight="900" background="#27262b" math="0" shadow="0">
      <root>
        <mxCell id="0" />
        <mxCell id="1" parent="0" />
        <mxCell id="KS0PyBc9pqYtCSMZTUuP-1" value="&lt;blockquote style=&quot;font-size: 12px;&quot;&gt;&lt;div style=&quot;font-size: 12px;&quot;&gt;&lt;p&gt;&lt;font face=&quot;Lucida Console&quot;&gt;&lt;b&gt;&lt;font style=&quot;font-size: 12px;&quot;&gt;Person&lt;/font&gt;&lt;/b&gt;&lt;/font&gt;&lt;/p&gt;&lt;/div&gt;&lt;/blockquote&gt;" style="rounded=1;whiteSpace=wrap;html=1;fillColor=#76608a;fontColor=#ffffff;strokeColor=default;fontFamily=Helvetica;verticalAlign=top;fontSize=12;" vertex="1" parent="1">
          <mxGeometry x="403" y="140" width="99" height="53" as="geometry" />
        </mxCell>
        <mxCell id="KS0PyBc9pqYtCSMZTUuP-7" value="&lt;p style=&quot;line-height: 0%;&quot;&gt;&lt;/p&gt;&lt;pre style=&quot;line-height: 0%;&quot;&gt;&lt;font face=&quot;Courier New&quot;&gt;{&lt;/font&gt;&lt;/pre&gt;&lt;pre style=&quot;line-height: 0%;&quot;&gt;&lt;font face=&quot;Courier New&quot;&gt;&amp;nbsp; &quot;STORE&quot;:&lt;/font&gt;&lt;/pre&gt;&lt;pre style=&quot;line-height: 0%;&quot;&gt;&lt;font face=&quot;Courier New&quot;&gt;&amp;nbsp; {&lt;/font&gt;&lt;/pre&gt;&lt;pre style=&quot;line-height: 0%;&quot;&gt;&lt;font face=&quot;Courier New&quot;&gt;&amp;nbsp;&amp;nbsp;&amp;nbsp; &quot;_class&quot;:&quot;Person&quot;,&lt;/font&gt;&lt;/pre&gt;&lt;pre style=&quot;line-height: 0%;&quot;&gt;&lt;font face=&quot;Courier New&quot;&gt;&amp;nbsp;&amp;nbsp;&amp;nbsp; &quot;_objects&quot;:&lt;/font&gt;&lt;/pre&gt;&lt;pre style=&quot;line-height: 0%;&quot;&gt;&lt;font face=&quot;Courier New&quot;&gt;&amp;nbsp;&amp;nbsp;&amp;nbsp; [&lt;/font&gt;&lt;/pre&gt;&lt;pre style=&quot;line-height: 0%;&quot;&gt;&lt;font face=&quot;Courier New&quot;&gt;&amp;nbsp;&amp;nbsp;&amp;nbsp;&amp;nbsp;&amp;nbsp; {&lt;/font&gt;&lt;/pre&gt;&lt;pre style=&quot;line-height: 0%;&quot;&gt;&lt;font face=&quot;Courier New&quot;&gt;&amp;nbsp;&amp;nbsp;&amp;nbsp;&amp;nbsp;&amp;nbsp;&amp;nbsp;&amp;nbsp; &quot;forename&quot;:&quot;James&quot;,&lt;/font&gt;&lt;/pre&gt;&lt;pre style=&quot;line-height: 0%;&quot;&gt;&lt;font face=&quot;Courier New&quot;&gt;&amp;nbsp;&amp;nbsp;&amp;nbsp;&amp;nbsp;&amp;nbsp;&amp;nbsp;&amp;nbsp; &quot;surname&quot;:&quot;Smith&quot;&lt;/font&gt;&lt;/pre&gt;&lt;pre style=&quot;line-height: 0%;&quot;&gt;&lt;font face=&quot;Courier New&quot;&gt;&amp;nbsp;&amp;nbsp;&amp;nbsp;&amp;nbsp;&amp;nbsp; }&lt;/font&gt;&lt;/pre&gt;&lt;pre style=&quot;line-height: 0%;&quot;&gt;&lt;font face=&quot;Courier New&quot;&gt;&amp;nbsp;&amp;nbsp;&amp;nbsp; ]&amp;nbsp;&amp;nbsp;&amp;nbsp;&amp;nbsp;&amp;nbsp;&amp;nbsp; &amp;nbsp;&lt;/font&gt;&lt;/pre&gt;&lt;pre style=&quot;line-height: 0%;&quot;&gt;&lt;font face=&quot;Courier New&quot;&gt;&amp;nbsp; }&lt;/font&gt;&lt;/pre&gt;&lt;pre style=&quot;line-height: 0%;&quot;&gt;&lt;font face=&quot;Courier New&quot;&gt;}&lt;/font&gt;&lt;/pre&gt;&lt;p&gt;&lt;/p&gt;" style="text;html=1;strokeColor=none;fillColor=none;align=left;verticalAlign=middle;whiteSpace=wrap;rounded=0;fontColor=#F0F0F0;" vertex="1" parent="1">
          <mxGeometry x="60" y="57" width="210" height="184" as="geometry" />
        </mxCell>
        <mxCell id="KS0PyBc9pqYtCSMZTUuP-8" value="" style="endArrow=classic;rounded=0;strokeWidth=3;labelBackgroundColor=none;fontColor=default;exitX=0.1;exitY=0.5;exitDx=0;exitDy=0;exitPerimeter=0;fillColor=#f0a30a;strokeColor=#BD7000;" edge="1" parent="1" source="KS0PyBc9pqYtCSMZTUuP-11">
          <mxGeometry relative="1" as="geometry">
            <mxPoint x="303" y="166" as="sourcePoint" />
            <mxPoint x="403" y="166" as="targetPoint" />
          </mxGeometry>
        </mxCell>
        <mxCell id="KS0PyBc9pqYtCSMZTUuP-9" value="&lt;div&gt;Assign&lt;/div&gt;&lt;div&gt;OID&lt;/div&gt;" style="edgeLabel;resizable=0;html=1;align=center;verticalAlign=middle;labelBackgroundColor=none;fontColor=#FFD966;fontStyle=1" connectable="0" vertex="1" parent="KS0PyBc9pqYtCSMZTUuP-8">
          <mxGeometry relative="1" as="geometry">
            <mxPoint x="-9" y="19" as="offset" />
          </mxGeometry>
        </mxCell>
        <mxCell id="KS0PyBc9pqYtCSMZTUuP-11" value="" style="shape=curlyBracket;whiteSpace=wrap;html=1;rounded=1;flipH=1;labelPosition=right;verticalLabelPosition=middle;align=left;verticalAlign=middle;fillColor=#f0a30a;fontColor=#000000;strokeColor=#BD7000;strokeWidth=3;" vertex="1" parent="1">
          <mxGeometry x="274" y="147" width="20" height="38" as="geometry" />
        </mxCell>
        <mxCell id="KS0PyBc9pqYtCSMZTUuP-12" value="&lt;blockquote style=&quot;font-size: 12px;&quot;&gt;&lt;div style=&quot;font-size: 12px;&quot;&gt;&lt;p&gt;&lt;font face=&quot;Lucida Console&quot;&gt;&lt;b&gt;&lt;font style=&quot;font-size: 12px;&quot;&gt;Person&lt;/font&gt;&lt;/b&gt;&lt;/font&gt;&lt;/p&gt;&lt;/div&gt;&lt;/blockquote&gt;" style="rounded=1;whiteSpace=wrap;html=1;fillColor=#76608a;fontColor=#ffffff;strokeColor=default;fontFamily=Helvetica;verticalAlign=top;fontSize=12;" vertex="1" parent="1">
          <mxGeometry x="416" y="412" width="99" height="53" as="geometry" />
        </mxCell>
        <mxCell id="KS0PyBc9pqYtCSMZTUuP-13" value="&lt;font face=&quot;Courier New&quot;&gt;{&lt;br&gt;&amp;nbsp; &quot;STORE&quot;:&lt;br&gt;&amp;nbsp; {&lt;br&gt;&amp;nbsp;&amp;nbsp;&amp;nbsp; &quot;_class&quot;:&quot;Person&quot;,&lt;br&gt;&amp;nbsp;&amp;nbsp;&amp;nbsp; &quot;_objects&quot;:&lt;br&gt;&amp;nbsp;&amp;nbsp;&amp;nbsp; [&lt;br&gt;&amp;nbsp;&amp;nbsp;&amp;nbsp;&amp;nbsp;&amp;nbsp; {&lt;br&gt;&amp;nbsp;&amp;nbsp;&amp;nbsp;&amp;nbsp;&amp;nbsp;&amp;nbsp;&amp;nbsp; &quot;forename&quot;:&quot;James&quot;,&lt;br&gt;&amp;nbsp;&amp;nbsp;&amp;nbsp;&amp;nbsp;&amp;nbsp;&amp;nbsp;&amp;nbsp; &quot;surname&quot;:&quot;Smith&quot;,&lt;br&gt;&amp;nbsp;&amp;nbsp;&amp;nbsp;&amp;nbsp;&amp;nbsp;&amp;nbsp;&amp;nbsp; &quot;address&quot;:&lt;br&gt;&amp;nbsp;&amp;nbsp;&amp;nbsp;&amp;nbsp;&amp;nbsp;&amp;nbsp;&amp;nbsp; {&lt;br&gt;&amp;nbsp;&amp;nbsp;&amp;nbsp;&amp;nbsp;&amp;nbsp;&amp;nbsp; &amp;nbsp;&amp;nbsp;&amp;nbsp; &amp;nbsp;&quot;city&quot;:&quot;London&quot;&lt;br&gt;&amp;nbsp;&amp;nbsp;&amp;nbsp;&amp;nbsp;&amp;nbsp;&amp;nbsp;&amp;nbsp; }&lt;br&gt;&amp;nbsp;&amp;nbsp;&amp;nbsp;&amp;nbsp;&amp;nbsp; }&lt;br&gt;&amp;nbsp;&amp;nbsp;&amp;nbsp; ]&amp;nbsp;&amp;nbsp;&amp;nbsp;&amp;nbsp;&amp;nbsp;&amp;nbsp; &amp;nbsp;&lt;br&gt;&amp;nbsp; }&lt;br&gt;}&lt;/font&gt;" style="text;html=1;strokeColor=none;fillColor=none;align=left;verticalAlign=middle;whiteSpace=wrap;rounded=0;" vertex="1" parent="1">
          <mxGeometry x="60" y="328" width="210" height="268" as="geometry" />
        </mxCell>
        <mxCell id="KS0PyBc9pqYtCSMZTUuP-14" value="" style="endArrow=classic;rounded=0;strokeWidth=3;labelBackgroundColor=none;fontColor=default;exitX=0.1;exitY=0.5;exitDx=0;exitDy=0;exitPerimeter=0;fillColor=#f0a30a;strokeColor=#BD7000;entryX=0;entryY=0.5;entryDx=0;entryDy=0;" edge="1" parent="1" source="KS0PyBc9pqYtCSMZTUuP-16" target="KS0PyBc9pqYtCSMZTUuP-12">
          <mxGeometry relative="1" as="geometry">
            <mxPoint x="305" y="450" as="sourcePoint" />
            <mxPoint x="405" y="450" as="targetPoint" />
          </mxGeometry>
        </mxCell>
        <mxCell id="KS0PyBc9pqYtCSMZTUuP-15" value="&lt;div&gt;Assign&lt;/div&gt;&lt;div&gt;OID&lt;/div&gt;" style="edgeLabel;resizable=0;html=1;align=center;verticalAlign=middle;labelBackgroundColor=none;fontColor=#FFD966;fontStyle=1" connectable="0" vertex="1" parent="KS0PyBc9pqYtCSMZTUuP-14">
          <mxGeometry relative="1" as="geometry">
            <mxPoint x="-3" y="21" as="offset" />
          </mxGeometry>
        </mxCell>
        <mxCell id="KS0PyBc9pqYtCSMZTUuP-16" value="" style="shape=curlyBracket;whiteSpace=wrap;html=1;rounded=1;flipH=1;labelPosition=right;verticalLabelPosition=middle;align=left;verticalAlign=middle;fillColor=#f0a30a;fontColor=#000000;strokeColor=#BD7000;strokeWidth=3;" vertex="1" parent="1">
          <mxGeometry x="276" y="431" width="20" height="38" as="geometry" />
        </mxCell>
        <mxCell id="KS0PyBc9pqYtCSMZTUuP-17" value="&lt;font&gt;&lt;b&gt;Address&lt;/b&gt;&lt;/font&gt;" style="rounded=1;whiteSpace=wrap;html=1;fillColor=#76608a;fontColor=#ffffff;strokeColor=default;fontFamily=Lucida Console;verticalAlign=middle;fontSize=12;" vertex="1" parent="1">
          <mxGeometry x="416" y="499" width="99" height="53" as="geometry" />
        </mxCell>
        <mxCell id="KS0PyBc9pqYtCSMZTUuP-18" value="" style="endArrow=classic;rounded=0;strokeWidth=3;labelBackgroundColor=none;fontColor=default;exitX=0.1;exitY=0.5;exitDx=0;exitDy=0;exitPerimeter=0;fillColor=#f0a30a;strokeColor=#BD7000;entryX=0;entryY=0.5;entryDx=0;entryDy=0;" edge="1" parent="1" source="KS0PyBc9pqYtCSMZTUuP-20" target="KS0PyBc9pqYtCSMZTUuP-17">
          <mxGeometry relative="1" as="geometry">
            <mxPoint x="305" y="515" as="sourcePoint" />
            <mxPoint x="405" y="515" as="targetPoint" />
          </mxGeometry>
        </mxCell>
        <mxCell id="KS0PyBc9pqYtCSMZTUuP-19" value="&lt;div&gt;Assign&lt;/div&gt;&lt;div&gt;OID&lt;/div&gt;" style="edgeLabel;resizable=0;html=1;align=center;verticalAlign=middle;labelBackgroundColor=none;fontColor=#FFD966;fontStyle=1" connectable="0" vertex="1" parent="KS0PyBc9pqYtCSMZTUuP-18">
          <mxGeometry relative="1" as="geometry">
            <mxPoint x="-2" y="18" as="offset" />
          </mxGeometry>
        </mxCell>
        <mxCell id="KS0PyBc9pqYtCSMZTUuP-20" value="" style="shape=curlyBracket;whiteSpace=wrap;html=1;rounded=1;flipH=1;labelPosition=right;verticalLabelPosition=middle;align=left;verticalAlign=middle;fillColor=#f0a30a;fontColor=#000000;strokeColor=#BD7000;strokeWidth=3;" vertex="1" parent="1">
          <mxGeometry x="276" y="496" width="20" height="38" as="geometry" />
        </mxCell>
      </root>
    </mxGraphModel>
  </diagram>
</mxfile>
